# xmcd
#
# Track frame offsets: 
#        150
#        26386
#        42399
#        57613
#        83172
#        108138
#        125863
#        141448
#        165852
#        179963
#        196974
#        219771
#
# Disc length: 3158 seconds
#
# Revision: 0
# Processed by: cddbd v1.5.1PL2 Copyright (c) Steve Scherf et al.
# Submitted via: ExactAudioCopy v0.95b2
#
DISCID=ab0c540c
DTITLE=Peter Green - Whatcha Gonna Do
DYEAR=1981
DGENRE=blues
TTITLE0=Got To See Her Tonight
TTITLE1=Promised Land
TTITLE2=Bullet In The Sky
TTITLE3=Give Me Back My Freedom
TTITLE4=Last Train To San Antone
TTITLE5=To Breave Your Heart
TTITLE6=Bizzy Lizzy
TTITLE7=Lost My Love
TTITLE8=Like A Hot Tomato
TTITLE9=Trying To Hit My Head Against The Wall
TTITLE10=Woman Don't
TTITLE11=Whatcha Gonna Do
EXTD=
EXTT0=
EXTT1=
EXTT2=
EXTT3=
EXTT4=
EXTT5=
EXTT6=
EXTT7=
EXTT8=
EXTT9=
EXTT10=
EXTT11=
PLAYORDER=
